<svg width="643" height="261" viewBox="0 0 643 261" fill="none" xmlns="http://www.w3.org/2000/svg">
<path d="M53.6533 9.875V113H39.5908V0.5H63.0283L128.58 98.9375L194.132 0.5H216.544V113H202.481V11.4131L135.685 113H121.476L53.6533 9.875ZM289.2 114.611C279.825 114.611 271.866 113.977 265.323 112.707C258.78 111.389 253.458 109.143 249.356 105.969C245.255 102.795 242.276 98.5469 240.421 93.2246C238.565 87.9023 237.638 81.2129 237.638 73.1562C237.638 63.9277 238.565 56.3105 240.421 50.3047C242.276 44.25 245.255 39.4404 249.356 35.876C253.458 32.3115 258.78 29.8213 265.323 28.4053C271.866 26.9893 279.825 26.2812 289.2 26.2812C295.89 26.2812 301.676 26.7695 306.559 27.7461C311.49 28.7227 315.689 30.1387 319.156 31.9941C322.672 33.8496 325.504 36.0957 327.652 38.7324C329.85 41.3691 331.559 44.1523 332.779 47.082C334.049 49.9629 334.903 53.3564 335.343 57.2627C335.831 61.1689 336.075 65.2949 336.075 69.6406L334.903 74.3281H251.7C251.7 80.7734 252.335 86.0713 253.604 90.2217C254.874 94.3232 256.974 97.3262 259.903 99.2305C262.833 101.135 266.69 102.355 271.476 102.893C276.261 103.381 282.169 103.625 289.2 103.625C295.646 103.625 300.968 103.454 305.167 103.112C309.415 102.722 312.784 102.014 315.274 100.988C317.765 99.9629 319.498 98.5469 320.475 96.7402C321.5 94.8848 322.013 92.4922 322.013 89.5625H336.075C336.075 94.1035 335.27 97.9854 333.658 101.208C332.096 104.382 329.483 106.97 325.821 108.972C322.159 110.925 317.325 112.341 311.319 113.22C305.362 114.147 297.989 114.611 289.2 114.611ZM289.2 38C284.513 38 280.313 38.0977 276.603 38.293C272.94 38.4883 269.718 38.9277 266.935 39.6113C264.2 40.2461 261.856 41.1982 259.903 42.4678C257.95 43.6885 256.363 45.1533 255.143 46.8623C253.971 48.5225 253.092 50.8906 252.506 53.9668C251.969 56.9941 251.7 60.6562 251.7 64.9531H322.013C322.013 59.2402 321.402 54.7725 320.182 51.5498C318.961 48.2783 317.032 45.5928 314.396 43.4932C311.759 41.3936 308.365 39.9531 304.215 39.1719C300.064 38.3906 295.06 38 289.2 38ZM439.2 113V66.125C439.2 60.9004 438.81 56.5059 438.028 52.9414C437.247 49.3281 435.685 46.4229 433.341 44.2256C430.997 42.0283 427.677 40.4414 423.38 39.4648C419.083 38.4883 413.419 38 406.388 38C398.771 38 392.521 38.5615 387.638 39.6846C382.804 40.8076 378.995 42.3945 376.212 44.4453C373.429 46.4961 371.5 48.9619 370.426 51.8428C369.4 54.7236 368.888 57.9219 368.888 61.4375V113H354.825V28.625H368.888V42.6875C369.913 40.2949 371.378 38.2441 373.282 36.5352C375.187 34.7773 377.335 33.2881 379.728 32.0674C382.12 30.8467 384.708 29.8701 387.491 29.1377C390.274 28.3564 393.058 27.7705 395.841 27.3799C398.624 26.9404 401.31 26.6475 403.897 26.501C406.534 26.3545 408.927 26.2812 411.075 26.2812C417.325 26.2812 422.696 26.6719 427.188 27.4531C431.729 28.2344 435.562 29.3818 438.688 30.8955C441.861 32.4092 444.4 34.2891 446.305 36.5352C448.209 38.7812 449.674 41.3936 450.699 44.3721C451.773 47.3018 452.481 50.5977 452.823 54.2598C453.165 57.873 453.336 61.8281 453.336 66.125L453.263 113H439.2ZM472.159 28.625L476.847 0.5H490.909L481.534 28.625H472.159ZM558.878 74.5479C552.237 74.5479 546.402 74.4502 541.373 74.2549C536.344 74.0596 531.998 73.6689 528.336 73.083C524.723 72.4482 521.695 71.5693 519.254 70.4463C516.861 69.3232 514.957 67.834 513.541 65.9785C512.125 64.0742 511.124 61.7549 510.538 59.0205C509.952 56.2373 509.659 53.2344 509.659 50.0117C509.659 45.6172 510.587 41.9307 512.442 38.9521C514.298 35.9248 517.276 33.4834 521.378 31.6279C525.479 29.7236 530.802 28.3564 537.345 27.5264C543.888 26.6963 551.847 26.2812 561.222 26.2812C570.499 26.2812 578.141 26.7695 584.146 27.7461C590.201 28.7227 594.986 30.2363 598.502 32.2871C602.066 34.2891 604.557 36.8281 605.973 39.9043C607.389 42.9805 608.097 46.6426 608.097 50.8906H594.034C594.034 48.2539 593.521 46.1055 592.496 44.4453C591.52 42.7852 589.786 41.4912 587.296 40.5635C584.806 39.5869 581.437 38.9277 577.188 38.5859C572.989 38.1953 567.667 38 561.222 38C554.19 38 548.282 38.0977 543.497 38.293C538.712 38.4883 534.854 38.9766 531.925 39.7578C528.995 40.5391 526.896 41.7354 525.626 43.3467C524.356 44.958 523.722 47.1797 523.722 50.0117C523.722 51.6719 523.819 53.3076 524.015 54.9189C524.259 56.4814 524.771 57.7754 525.553 58.8008C526.334 59.8262 527.481 60.6074 528.995 61.1445C530.509 61.6816 532.56 62.0967 535.147 62.3896C537.784 62.6338 541.031 62.7803 544.889 62.8291C548.746 62.8291 553.409 62.8291 558.878 62.8291C565.519 62.8291 571.329 62.9756 576.31 63.2686C581.339 63.5615 585.685 64.0742 589.347 64.8066C593.009 65.5391 596.036 66.6621 598.429 68.1758C600.821 69.6895 602.726 71.3496 604.142 73.1562C605.606 74.9141 606.632 77.0137 607.218 79.4551C607.804 81.8477 608.097 84.6309 608.097 87.8047C608.097 90.9785 607.804 93.835 607.218 96.374C606.632 98.8643 605.606 101.086 604.142 103.039C602.677 104.943 600.675 106.604 598.136 108.02C595.646 109.387 592.496 110.51 588.688 111.389C584.879 112.219 580.313 112.829 574.991 113.22C569.718 113.659 563.565 113.879 556.534 113.879C547.745 113.879 540.348 113.439 534.342 112.561C528.385 111.682 523.575 110.29 519.913 108.386C516.251 106.433 513.614 103.918 512.003 100.842C510.44 97.7656 509.659 94.0059 509.659 89.5625H523.722C523.722 92.4922 524.21 94.8848 525.187 96.7402C526.212 98.5469 527.97 99.9629 530.46 100.988C532.95 102.014 536.295 102.722 540.494 103.112C544.742 103.454 550.089 103.625 556.534 103.625C562.394 103.625 567.374 103.503 571.476 103.259C575.626 102.966 579.093 102.526 581.876 101.94C584.659 101.354 586.856 100.646 588.468 99.8164C590.079 98.9863 591.3 97.9854 592.13 96.8135C592.96 95.6416 593.473 94.3477 593.668 92.9316C593.912 91.4668 594.034 89.8555 594.034 88.0977C594.034 86.4863 593.912 85.0703 593.668 83.8496C593.473 82.5801 592.984 81.335 592.203 80.1143C591.422 78.8447 590.274 77.8926 588.761 77.2578C587.247 76.623 585.172 76.1104 582.535 75.7197C579.947 75.2803 576.725 74.9873 572.867 74.8408C569.01 74.6455 564.347 74.5479 558.878 74.5479ZM122.062 180.656C122.062 174.797 121.427 170.158 120.157 166.74C118.888 163.322 116.788 160.734 113.858 158.977C110.929 157.219 107.071 156.096 102.286 155.607C97.5498 155.119 91.666 154.875 84.6348 154.875H51.749C45.499 154.875 40.2256 155.07 35.9287 155.461C31.6807 155.803 28.165 156.535 25.3818 157.658C22.5986 158.781 20.4502 160.393 18.9365 162.492C17.4229 164.592 16.3242 167.375 15.6406 170.842C14.957 174.309 14.5664 178.581 14.4688 183.659C14.3711 188.688 14.3223 194.719 14.3223 201.75C14.3223 208.781 14.3711 214.836 14.4688 219.914C14.6152 224.943 15.0303 229.191 15.7139 232.658C16.3975 236.125 17.4717 238.908 18.9365 241.008C20.4502 243.107 22.5986 244.719 25.3818 245.842C28.165 246.965 31.6807 247.722 35.9287 248.112C40.2256 248.454 45.499 248.625 51.749 248.625H84.6348C90.1035 248.625 94.8154 248.479 98.7705 248.186C102.726 247.893 106.095 247.355 108.878 246.574C111.661 245.793 113.907 244.719 115.616 243.352C117.325 241.984 118.644 240.275 119.571 238.225C120.548 236.125 121.207 233.635 121.549 230.754C121.891 227.824 122.062 224.406 122.062 220.5H136.124C136.124 225.188 135.831 229.436 135.245 233.244C134.659 237.004 133.609 240.373 132.096 243.352C130.631 246.281 128.653 248.82 126.163 250.969C123.673 253.117 120.523 254.899 116.715 256.315C112.906 257.683 108.365 258.684 103.092 259.318C97.8184 260.002 91.666 260.344 84.6348 260.344H51.749C43.1553 260.344 35.9043 259.807 29.9961 258.732C24.1367 257.707 19.3027 256.145 15.4941 254.045C11.6855 251.896 8.73145 249.211 6.63184 245.988C4.58105 242.766 3.06738 238.981 2.09082 234.636C1.16309 230.29 0.625977 225.383 0.479492 219.914C0.333008 214.445 0.259766 208.391 0.259766 201.75C0.259766 195.109 0.333008 189.055 0.479492 183.586C0.625977 178.117 1.16309 173.21 2.09082 168.864C3.06738 164.519 4.58105 160.734 6.63184 157.512C8.73145 154.289 11.6855 151.628 15.4941 149.528C19.3027 147.38 24.1367 145.793 29.9961 144.768C35.9043 143.693 43.1553 143.156 51.749 143.156H84.6348C91.666 143.156 97.8184 143.498 103.092 144.182C108.365 144.816 112.906 145.817 116.715 147.185C120.523 148.503 123.673 150.188 126.163 152.238C128.653 154.289 130.631 156.706 132.096 159.489C133.609 162.272 134.659 165.422 135.245 168.938C135.831 172.453 136.124 176.359 136.124 180.656H122.062ZM239.322 258V210.393C239.322 205.314 238.932 201.042 238.15 197.575C237.369 194.06 235.807 191.228 233.463 189.079C231.119 186.931 227.799 185.393 223.502 184.465C219.205 183.488 213.541 183 206.51 183C198.893 183 192.643 183.562 187.76 184.685C182.926 185.759 179.117 187.297 176.334 189.299C173.551 191.252 171.622 193.62 170.548 196.403C169.522 199.187 169.01 202.287 169.01 205.705V258H154.947V145.5H169.01V186.955C169.986 184.66 171.378 182.683 173.185 181.022C174.991 179.362 177.066 177.946 179.41 176.774C181.803 175.603 184.366 174.675 187.101 173.991C189.835 173.259 192.594 172.697 195.377 172.307C198.209 171.916 200.968 171.647 203.653 171.501C206.388 171.354 208.902 171.281 211.197 171.281C217.447 171.281 222.818 171.672 227.311 172.453C231.852 173.186 235.685 174.309 238.81 175.822C241.983 177.287 244.522 179.118 246.427 181.315C248.331 183.513 249.796 186.076 250.821 189.006C251.896 191.887 252.604 195.134 252.945 198.747C253.287 202.312 253.458 206.193 253.458 210.393L253.385 258H239.322ZM269.938 215.227C269.938 206.584 270.865 199.431 272.721 193.767C274.576 188.103 277.555 183.61 281.656 180.29C285.758 176.97 291.08 174.65 297.623 173.332C304.166 171.965 312.125 171.281 321.5 171.281C330.875 171.281 338.834 171.965 345.377 173.332C351.92 174.65 357.242 176.97 361.344 180.29C365.445 183.61 368.424 188.103 370.279 193.767C372.135 199.431 373.062 206.584 373.062 215.227C373.062 223.869 372.135 231.047 370.279 236.76C368.424 242.473 365.445 247.014 361.344 250.383C357.242 253.752 351.92 256.145 345.377 257.561C338.834 258.928 330.875 259.611 321.5 259.611C312.125 259.611 304.166 258.928 297.623 257.561C291.08 256.145 285.758 253.752 281.656 250.383C277.555 247.014 274.576 242.473 272.721 236.76C270.865 231.047 269.938 223.869 269.938 215.227ZM284 215.227C284 219.914 284.171 223.991 284.513 227.458C284.854 230.925 285.489 233.903 286.417 236.394C287.394 238.884 288.736 240.91 290.445 242.473C292.154 244.035 294.4 245.28 297.184 246.208C299.967 247.136 303.336 247.771 307.291 248.112C311.295 248.454 316.031 248.625 321.5 248.625C326.188 248.625 330.362 248.527 334.024 248.332C337.735 248.088 340.958 247.575 343.692 246.794C346.476 246.013 348.844 244.914 350.797 243.498C352.75 242.033 354.312 240.056 355.484 237.565C356.705 235.075 357.584 232.023 358.121 228.41C358.707 224.748 359 220.354 359 215.227C359 210.197 358.707 205.925 358.121 202.409C357.584 198.845 356.705 195.866 355.484 193.474C354.312 191.081 352.75 189.201 350.797 187.834C348.844 186.418 346.476 185.368 343.692 184.685C340.958 183.952 337.735 183.488 334.024 183.293C330.362 183.098 326.188 183 321.5 183C316.812 183 312.613 183.098 308.902 183.293C305.24 183.488 302.018 183.952 299.234 184.685C296.5 185.368 294.156 186.418 292.203 187.834C290.25 189.201 288.663 191.081 287.442 193.474C286.271 195.866 285.392 198.845 284.806 202.409C284.269 205.925 284 210.197 284 215.227ZM394.156 173.625H408.219V258H394.156V173.625ZM408.219 159.562H394.156V145.5H408.219V159.562ZM429.312 215.959C429.312 210.1 429.605 204.924 430.191 200.432C430.777 195.939 431.803 192.033 433.268 188.713C434.781 185.393 436.783 182.634 439.273 180.437C441.812 178.19 444.986 176.384 448.795 175.017C452.652 173.649 457.218 172.673 462.491 172.087C467.765 171.501 473.917 171.208 480.948 171.208C490.323 171.208 498.038 171.794 504.093 172.966C510.147 174.089 514.933 175.847 518.448 178.239C521.964 180.583 524.405 183.586 525.772 187.248C527.14 190.861 527.823 195.183 527.823 200.212H513.761C513.761 198.405 513.712 196.721 513.614 195.158C513.517 193.596 513.15 192.18 512.516 190.91C511.93 189.641 510.978 188.518 509.659 187.541C508.341 186.516 506.461 185.661 504.02 184.978C501.578 184.294 498.478 183.781 494.718 183.439C491.007 183.098 486.417 182.927 480.948 182.927C474.698 182.927 469.425 183.146 465.128 183.586C460.88 184.025 457.364 184.758 454.581 185.783C451.798 186.76 449.649 188.103 448.136 189.812C446.622 191.472 445.523 193.522 444.84 195.964C444.156 198.405 443.741 201.286 443.595 204.606C443.497 207.878 443.448 211.662 443.448 215.959C443.448 220.158 443.497 223.894 443.595 227.165C443.741 230.388 444.156 233.22 444.84 235.661C445.523 238.054 446.622 240.08 448.136 241.74C449.649 243.4 451.798 244.743 454.581 245.769C457.364 246.794 460.88 247.526 465.128 247.966C469.425 248.405 474.698 248.625 480.948 248.625C486.417 248.625 491.007 248.43 494.718 248.039C498.478 247.648 501.578 247.087 504.02 246.354C506.461 245.622 508.341 244.719 509.659 243.645C510.978 242.57 511.93 241.35 512.516 239.982C513.15 238.566 513.517 237.028 513.614 235.368C513.712 233.659 513.761 231.828 513.761 229.875H527.823C527.823 235.002 527.14 239.445 525.772 243.205C524.405 246.965 521.964 250.065 518.448 252.507C514.933 254.899 510.147 256.682 504.093 257.854C498.038 259.025 490.323 259.611 480.948 259.611C473.917 259.611 467.765 259.318 462.491 258.732C457.218 258.146 452.652 257.194 448.795 255.876C444.986 254.509 441.812 252.727 439.273 250.529C436.783 248.332 434.781 245.622 433.268 242.399C431.803 239.177 430.777 235.393 430.191 231.047C429.605 226.652 429.312 221.623 429.312 215.959ZM595.865 259.611C586.49 259.611 578.531 258.977 571.988 257.707C565.445 256.389 560.123 254.143 556.021 250.969C551.92 247.795 548.941 243.547 547.086 238.225C545.23 232.902 544.303 226.213 544.303 218.156C544.303 208.928 545.23 201.311 547.086 195.305C548.941 189.25 551.92 184.44 556.021 180.876C560.123 177.312 565.445 174.821 571.988 173.405C578.531 171.989 586.49 171.281 595.865 171.281C602.555 171.281 608.341 171.77 613.224 172.746C618.155 173.723 622.354 175.139 625.821 176.994C629.337 178.85 632.169 181.096 634.317 183.732C636.515 186.369 638.224 189.152 639.444 192.082C640.714 194.963 641.568 198.356 642.008 202.263C642.496 206.169 642.74 210.295 642.74 214.641L641.568 219.328H558.365C558.365 225.773 559 231.071 560.27 235.222C561.539 239.323 563.639 242.326 566.568 244.23C569.498 246.135 573.355 247.355 578.141 247.893C582.926 248.381 588.834 248.625 595.865 248.625C602.311 248.625 607.633 248.454 611.832 248.112C616.08 247.722 619.449 247.014 621.939 245.988C624.43 244.963 626.163 243.547 627.14 241.74C628.165 239.885 628.678 237.492 628.678 234.562H642.74C642.74 239.104 641.935 242.985 640.323 246.208C638.761 249.382 636.148 251.97 632.486 253.972C628.824 255.925 623.99 257.341 617.984 258.22C612.027 259.147 604.654 259.611 595.865 259.611ZM595.865 183C591.178 183 586.979 183.098 583.268 183.293C579.605 183.488 576.383 183.928 573.6 184.611C570.865 185.246 568.521 186.198 566.568 187.468C564.615 188.688 563.028 190.153 561.808 191.862C560.636 193.522 559.757 195.891 559.171 198.967C558.634 201.994 558.365 205.656 558.365 209.953H628.678C628.678 204.24 628.067 199.772 626.847 196.55C625.626 193.278 623.697 190.593 621.061 188.493C618.424 186.394 615.03 184.953 610.88 184.172C606.729 183.391 601.725 183 595.865 183Z" fill="#021E82"/>
</svg>
