<svg width="1158" height="480" viewBox="0 0 1158 480" fill="none" xmlns="http://www.w3.org/2000/svg">
<path d="M624.043 269.76V434.949H695.109V476.246H577V269.76H624.043Z" fill="white"/>
<path d="M709.229 412.173C709.229 372.127 743.261 344.095 786.551 344.095C829.09 344.095 863.121 372.127 863.121 412.173C863.121 451.718 830.841 480 786.551 480C740.258 480 709.229 451.718 709.229 412.173ZM756.273 412.173C756.273 429.693 768.284 442.207 786.3 442.207C803.566 442.207 816.078 429.693 816.078 412.173C816.078 394.402 802.816 381.888 786.3 381.888C769.535 381.888 756.273 394.402 756.273 412.173Z" fill="white"/>
<path d="M874.665 412.173C874.665 372.127 908.696 344.095 951.986 344.095C994.526 344.095 1028.56 372.127 1028.56 412.173C1028.56 451.718 996.277 480 951.986 480C905.694 480 874.665 451.718 874.665 412.173ZM921.708 412.173C921.708 429.693 933.72 442.207 951.736 442.207C969.002 442.207 981.514 429.693 981.514 412.173C981.514 394.402 968.251 381.888 951.736 381.888C934.971 381.888 921.708 394.402 921.708 412.173Z" fill="white"/>
<path d="M1195.99 347.849L1134.94 409.169L1202 476.246H1144.95L1093.65 424.937V476.246H1049.36V261H1093.65V392.65L1138.44 347.849H1195.99Z" fill="white"/>
<path d="M106.663 0C153.582 0 186.738 24.3927 186.738 24.3927L162.966 71.3018C162.966 71.3018 137.317 53.4764 110.729 53.4764C90.7103 53.4764 80.0753 62.5454 80.0753 76.6182C80.0753 91.0036 104.473 101.324 133.876 113.833C162.653 126.029 194.245 150.422 194.245 184.196C194.245 245.804 147.326 267.382 96.9661 267.382C36.5969 267.382 0 233.295 0 233.295L29.4026 183.884C29.4026 183.884 63.81 212.967 92.5871 212.967C105.412 212.967 129.81 211.716 129.81 187.636C129.81 168.873 102.284 160.429 71.6298 145.105C40.6632 129.782 22.5212 105.702 22.5212 78.8073C22.5212 30.6473 65.0611 0 106.663 0Z" fill="white"/>
<path d="M409.408 182.32C409.408 229.229 376.565 267.382 329.646 267.382C308.063 267.382 290.234 260.189 277.096 247.367V344H221.732V102.262H276.471V120.4H277.096C288.983 107.265 307.75 97.5709 329.646 97.5709C376.565 97.5709 409.408 135.411 409.408 182.32ZM350.603 182.32C350.603 160.429 335.589 144.793 313.068 144.793C291.485 144.793 275.845 160.429 275.845 182.32C275.845 204.524 292.423 220.16 313.068 220.16C334.025 220.16 350.603 204.524 350.603 182.32Z" fill="white"/>
<path d="M423.677 182.633C423.677 132.596 466.217 97.5709 520.331 97.5709C573.505 97.5709 616.046 132.596 616.046 182.633C616.046 232.044 575.695 267.382 520.331 267.382C462.464 267.382 423.677 232.044 423.677 182.633ZM482.482 182.633C482.482 204.524 497.497 220.16 520.018 220.16C541.601 220.16 557.24 204.524 557.24 182.633C557.24 160.429 540.662 144.793 520.018 144.793C499.061 144.793 482.482 160.429 482.482 182.633Z" fill="white"/>
<path d="M641.438 262.691V102.262H696.802V125.404H697.428C697.428 125.404 714.945 97.5709 746.537 97.5709C767.181 97.5709 781.57 107.578 781.57 107.578L758.423 154.487C758.423 154.487 748.101 145.731 729.646 145.731C700.869 145.731 696.802 174.189 696.802 178.255V262.691H641.438Z" fill="white"/>
<path d="M806.608 102.262V42.5309H861.972V102.262H895.754V144.48H861.972V195.455C861.972 210.465 865.726 217.658 874.484 217.658C881.679 217.658 888.247 212.655 888.247 212.655L902.01 257.375C902.01 257.375 884.181 267.382 861.347 267.382C817.243 267.382 806.608 234.545 806.608 206.087V144.48H783.461V102.262H806.608Z" fill="white"/>
<path d="M990.384 97.5709C1021.35 97.5709 1044.18 110.08 1044.18 110.08L1026.04 146.356C1026.04 146.356 1007.28 136.349 990.384 136.349C978.185 136.349 973.181 138.538 973.181 146.044C973.181 154.487 984.441 156.989 998.204 161.367C1019.47 167.935 1047 179.818 1047 212.655C1047 259.876 1003.83 267.382 970.991 267.382C932.205 267.382 909.058 245.804 909.058 245.804L931.579 207.964C931.579 207.964 953.475 226.415 971.304 226.415C979.124 226.415 988.507 225.476 988.507 214.844C988.507 203.273 970.991 202.335 952.849 192.953C936.584 184.509 920.318 173.251 920.318 149.171C920.318 116.335 948.157 97.5709 990.384 97.5709Z" fill="white"/>
</svg>
