<svg width="637" height="288" viewBox="0 0 637 288" fill="none" xmlns="http://www.w3.org/2000/svg">
<path d="M50.0195 41.4541C61.2988 47.8018 69.0625 53.3926 73.3105 58.2266C77.6074 63.0117 79.7559 68.8467 79.7559 75.7314C79.7559 84.2764 76.1914 90.8926 69.0625 95.5801C61.9336 100.268 52.1924 102.611 39.8389 102.611C34.1748 102.611 28.7305 102.196 23.5059 101.366C18.2812 100.536 13.8379 99.4131 10.1758 97.9971L8.6377 77.5625L20.8691 75.7314L27.0215 90.1602C29.0234 90.6484 31.2207 91.0391 33.6133 91.332C36.0547 91.5762 38.4961 91.6982 40.9375 91.6982C43.5254 91.6982 46.1133 91.5029 48.7012 91.1123C51.2891 90.7217 53.584 90.2334 55.5859 89.6475C56.1719 88.4756 56.6846 87.0107 57.124 85.2529C57.5635 83.4951 57.7832 81.7617 57.7832 80.0527C57.7832 76.1465 56.2451 72.7285 53.1689 69.7988C50.0928 66.8691 44.4775 62.9629 36.3232 58.0801C23.8721 50.9023 15.9131 45.1162 12.4463 40.7217C8.97949 36.3271 7.22168 31.1758 7.17285 25.2676C7.17285 17.3574 10.6152 11.2295 17.5 6.88379C24.4336 2.48926 33.9795 0.291992 46.1377 0.291992C51.0693 0.291992 55.9033 0.633789 60.6396 1.31738C65.4248 2.00098 69.6729 2.92871 73.3838 4.10059L74.9219 25.3408L63.5693 26.9521L57.4902 12.5234C55.5859 12.084 53.5352 11.7666 51.3379 11.5713C49.1895 11.3271 47.0654 11.2051 44.9658 11.2051C42.5244 11.2051 40.083 11.376 37.6416 11.7178C35.2002 12.0596 32.832 12.5723 30.5371 13.2559C30.1465 14.5254 29.8047 15.9414 29.5117 17.5039C29.2676 19.0664 29.1455 20.5557 29.1455 21.9717C29.1455 25.0479 30.3418 27.7334 32.7344 30.0283C35.1758 32.3232 40.9375 36.1318 50.0195 41.4541ZM116.45 73.6807C116.45 80.126 117.378 84.8623 119.233 87.8896C121.089 90.8682 124.043 92.3574 128.096 92.3574C130.732 92.3574 133.54 91.3809 136.519 89.4277C139.546 87.4746 142.427 84.8135 145.161 81.4443V32.665L132.49 30.1748L133.955 21.5322L166.401 19.9209V89.8672L176.875 92.3574L175.41 101L150.874 102.611L146.626 91.0391C142.866 94.8965 138.765 97.8018 134.321 99.7549C129.927 101.659 125.19 102.611 120.112 102.611C111.812 102.611 105.586 100.292 101.436 95.6533C97.2852 91.0146 95.21 84.1543 95.21 75.0723V32.665L84.7363 30.1748L86.2012 21.5322L116.45 19.9209V73.6807ZM185.518 92.3574L195.991 89.8672V32.665L185.518 30.1748L186.982 21.5322L211.519 19.9209L215.767 31.4932C220.356 27.2451 224.849 24.2666 229.243 22.5576C233.638 20.7998 238.276 19.9209 243.159 19.9209C248.579 19.9209 253.12 20.7998 256.782 22.5576C260.444 24.2666 263.643 27.2451 266.377 31.4932C270.576 27.5869 275.093 24.6816 279.927 22.7773C284.761 20.873 289.644 19.9209 294.575 19.9209C302.876 19.9209 309.199 22.0449 313.545 26.293C317.891 30.4922 320.063 36.6934 320.063 44.8965V89.8672L330.537 92.3574L329.072 101H289.814L288.35 92.3574L298.823 89.8672V45.9951C298.823 40.5752 297.969 36.5957 296.26 34.0566C294.551 31.4688 291.792 30.1748 287.983 30.1748C285.151 30.1748 281.953 31.2246 278.389 33.3242C274.873 35.375 271.626 37.9629 268.647 41.0879V89.8672L279.121 92.3574L277.656 101H238.398L236.934 92.3574L247.407 89.8672V45.9951C247.407 40.4287 246.528 36.4004 244.771 33.9102C243.013 31.4199 240.278 30.1748 236.567 30.1748C233.784 30.1748 230.708 31.1514 227.339 33.1045C223.97 35.0088 220.601 37.6699 217.231 41.0879V89.8672L227.705 92.3574L226.24 101H186.982L185.518 92.3574ZM338.887 92.3574L349.36 89.8672V32.665L338.887 30.1748L340.352 21.5322L364.888 19.9209L369.136 31.4932C373.726 27.2451 378.218 24.2666 382.612 22.5576C387.007 20.7998 391.646 19.9209 396.528 19.9209C401.948 19.9209 406.489 20.7998 410.151 22.5576C413.813 24.2666 417.012 27.2451 419.746 31.4932C423.945 27.5869 428.462 24.6816 433.296 22.7773C438.13 20.873 443.013 19.9209 447.944 19.9209C456.245 19.9209 462.568 22.0449 466.914 26.293C471.26 30.4922 473.433 36.6934 473.433 44.8965V89.8672L483.906 92.3574L482.441 101H443.184L441.719 92.3574L452.192 89.8672V45.9951C452.192 40.5752 451.338 36.5957 449.629 34.0566C447.92 31.4688 445.161 30.1748 441.353 30.1748C438.521 30.1748 435.322 31.2246 431.758 33.3242C428.242 35.375 424.995 37.9629 422.017 41.0879V89.8672L432.49 92.3574L431.025 101H391.768L390.303 92.3574L400.776 89.8672V45.9951C400.776 40.4287 399.897 36.4004 398.14 33.9102C396.382 31.4199 393.647 30.1748 389.937 30.1748C387.153 30.1748 384.077 31.1514 380.708 33.1045C377.339 35.0088 373.97 37.6699 370.601 41.0879V89.8672L381.074 92.3574L379.609 101H340.352L338.887 92.3574ZM513.203 63.4268V68.2607C513.203 76.0732 515.083 82.0547 518.843 86.2051C522.651 90.3066 528.389 92.3574 536.055 92.3574C539.375 92.3574 543.232 91.8691 547.627 90.8926C552.021 89.916 555.806 88.8174 558.979 87.5967V96.0928C555.415 97.8994 550.825 99.4375 545.21 100.707C539.595 101.977 533.882 102.611 528.071 102.611C516.499 102.611 507.588 99.877 501.338 94.4082C495.088 88.9395 491.963 81.0293 491.963 70.6777V64.5986C491.963 50.5361 495.479 39.5742 502.51 31.7129C509.541 23.8516 519.307 19.9209 531.807 19.9209C542.939 19.9209 550.898 22.582 555.684 27.9043C560.469 33.1777 562.861 41.8447 562.861 53.9053V63.4268H513.203ZM516.719 33.0312C515.938 35.8633 515.229 39.0859 514.595 42.6992C514.009 46.3125 513.618 49.8037 513.423 53.1729H541.621C541.621 44.6279 540.645 38.6709 538.691 35.3018C536.738 31.8838 533.418 30.1748 528.73 30.1748C526.68 30.1748 524.604 30.4189 522.505 30.9072C520.454 31.3955 518.525 32.1035 516.719 33.0312ZM581.685 32.665L571.211 30.1748L572.676 21.5322L597.212 19.9209L601.46 31.4932C603.608 27.4893 606.245 24.5596 609.37 22.7041C612.495 20.8486 616.133 19.9209 620.283 19.9209C622.236 19.9209 624.287 20.1895 626.436 20.7266C628.584 21.2637 630.562 22.0205 632.368 22.9971L630.537 45.1895H616.475L614.497 31.3467C614.155 31.249 613.813 31.1758 613.472 31.127C613.13 31.0781 612.812 31.0537 612.52 31.0537C611.055 31.0537 609.468 31.957 607.759 33.7637C606.099 35.5215 604.487 37.9629 602.925 41.0879V89.8672L615.815 92.3574L614.351 101H572.676L571.211 92.3574L581.685 89.8672V32.665ZM66.6113 193.696C83.9062 203.429 95.8105 212.002 102.324 219.414C108.913 226.751 112.207 235.698 112.207 246.255C112.207 259.357 106.742 269.502 95.8105 276.689C84.8796 283.877 69.943 287.471 51.001 287.471C42.3161 287.471 33.9681 286.834 25.957 285.562C17.946 284.289 11.1328 282.567 5.51758 280.396L3.15918 249.062L21.9141 246.255L31.3477 268.379C34.4173 269.128 37.7865 269.727 41.4551 270.176C45.1986 270.55 48.9421 270.737 52.6855 270.737C56.6536 270.737 60.6217 270.438 64.5898 269.839C68.5579 269.24 72.0768 268.491 75.1465 267.593C76.0449 265.796 76.8311 263.55 77.5049 260.854C78.1787 258.159 78.5156 255.501 78.5156 252.881C78.5156 246.891 76.1572 241.65 71.4404 237.158C66.7236 232.666 58.1136 226.676 45.6104 219.189C26.5186 208.184 14.3148 199.312 8.99902 192.573C3.68327 185.835 0.987956 177.936 0.913086 168.877C0.913086 156.748 6.19141 147.352 16.748 140.688C27.3796 133.95 42.0166 130.581 60.6592 130.581C68.221 130.581 75.6331 131.105 82.8955 132.153C90.2327 133.201 96.7464 134.624 102.437 136.421L104.795 168.989L87.3877 171.46L78.0664 149.336C75.1465 148.662 72.002 148.175 68.6328 147.876C65.3385 147.502 62.0817 147.314 58.8623 147.314C55.1188 147.314 51.3753 147.576 47.6318 148.101C43.8883 148.625 40.2572 149.411 36.7383 150.459C36.1393 152.406 35.6152 154.577 35.166 156.973C34.7917 159.368 34.6045 161.652 34.6045 163.823C34.6045 168.54 36.4388 172.658 40.1074 176.177C43.8509 179.696 52.6855 185.535 66.6113 193.696ZM116.025 271.748L127.256 268.604L175.884 133.052H205.42L252.925 268.604L264.043 271.748L261.797 285H206.318L204.072 271.748L218.896 268.604L209.688 241.65H158.813L149.38 268.604L164.204 271.748L161.958 285H118.271L116.025 271.748ZM164.541 224.917H204.072L185.43 170.112H183.633L164.541 224.917ZM284.819 150.122L268.76 146.304L271.006 133.052H332.212L334.458 146.304L318.511 150.122V268.267H348.384L357.705 246.592L375 249.062L372.192 285H271.006L268.76 271.748L284.819 267.93V150.122ZM438.452 213.911V268.267H483.486L492.808 246.592L507.856 249.175L505.161 285H390.947L388.701 271.748L404.761 267.93V150.122L388.701 146.304L390.947 133.052H501.792L504.487 168.989L489.551 171.46L480.229 149.785H438.452V197.178H470.684L474.502 184.6L487.866 186.846V224.355L474.502 226.602L470.684 213.911H438.452ZM590.625 193.696C607.92 203.429 619.824 212.002 626.338 219.414C632.926 226.751 636.221 235.698 636.221 246.255C636.221 259.357 630.755 269.502 619.824 276.689C608.893 283.877 593.957 287.471 575.015 287.471C566.33 287.471 557.982 286.834 549.971 285.562C541.96 284.289 535.146 282.567 529.531 280.396L527.173 249.062L545.928 246.255L555.361 268.379C558.431 269.128 561.8 269.727 565.469 270.176C569.212 270.55 572.956 270.737 576.699 270.737C580.667 270.737 584.635 270.438 588.604 269.839C592.572 269.24 596.09 268.491 599.16 267.593C600.059 265.796 600.845 263.55 601.519 260.854C602.192 258.159 602.529 255.501 602.529 252.881C602.529 246.891 600.171 241.65 595.454 237.158C590.737 232.666 582.127 226.676 569.624 219.189C550.532 208.184 538.328 199.312 533.013 192.573C527.697 185.835 525.002 177.936 524.927 168.877C524.927 156.748 530.205 147.352 540.762 140.688C551.393 133.95 566.03 130.581 584.673 130.581C592.235 130.581 599.647 131.105 606.909 132.153C614.246 133.201 620.76 134.624 626.45 136.421L628.809 168.989L611.401 171.46L602.08 149.336C599.16 148.662 596.016 148.175 592.646 147.876C589.352 147.502 586.095 147.314 582.876 147.314C579.132 147.314 575.389 147.576 571.646 148.101C567.902 148.625 564.271 149.411 560.752 150.459C560.153 152.406 559.629 154.577 559.18 156.973C558.805 159.368 558.618 161.652 558.618 163.823C558.618 168.54 560.452 172.658 564.121 176.177C567.865 179.696 576.699 185.535 590.625 193.696Z" fill="#1D4559"/>
</svg>
