<svg width="442" height="134" viewBox="0 0 442 134" fill="none" xmlns="http://www.w3.org/2000/svg">
<rect x="9" width="424" height="134" fill="#1D4559"/>
<path d="M50.4355 76.58C50.4355 81.74 51.5355 85.86 53.7355 88.94C55.9755 91.98 59.3955 93.5 63.9955 93.5C68.6355 93.5 72.0555 91.98 74.2555 88.94C76.4555 85.86 77.5555 81.74 77.5555 76.58V51.74H87.8755V78.02C87.8755 82.82 86.9355 87.06 85.0555 90.74C83.2155 94.42 80.5155 97.3 76.9555 99.38C73.4355 101.42 69.1155 102.44 63.9955 102.44C58.9155 102.44 54.5955 101.42 51.0355 99.38C47.5155 97.3 44.8155 94.42 42.9355 90.74C41.0955 87.06 40.1755 82.82 40.1755 78.02V51.74H50.4355V76.58ZM100.922 101H90.5417V51.74H100.922V60.26H100.622C100.822 59.22 101.562 57.92 102.842 56.36C104.122 54.8 105.882 53.4 108.122 52.16C110.362 50.92 113.042 50.3 116.162 50.3C118.442 50.3 120.442 50.62 122.162 51.26C123.922 51.86 125.162 52.46 125.882 53.06L121.622 61.7C121.062 61.14 120.082 60.58 118.682 60.02C117.282 59.42 115.542 59.12 113.462 59.12C110.822 59.12 108.562 59.94 106.682 61.58C104.802 63.22 103.362 65.2 102.362 67.52C101.402 69.8 100.922 71.92 100.922 73.88V101ZM120.975 101V18.44H131.535V60.98C131.775 59.74 132.715 58.28 134.355 56.6C135.995 54.92 138.195 53.46 140.955 52.22C143.715 50.94 146.895 50.3 150.495 50.3C155.095 50.3 159.175 51.4 162.735 53.6C166.295 55.76 169.095 58.8 171.135 62.72C173.215 66.6 174.255 71.16 174.255 76.4C174.255 81.64 173.215 86.22 171.135 90.14C169.095 94.02 166.295 97.04 162.735 99.2C159.175 101.36 155.095 102.44 150.495 102.44C147.095 102.44 144.015 101.8 141.255 100.52C138.535 99.24 136.315 97.74 134.595 96.02C132.875 94.3 131.795 92.76 131.355 91.4V101H120.975ZM163.875 76.4C163.875 72.84 163.155 69.76 161.715 67.16C160.275 64.56 158.355 62.54 155.955 61.1C153.595 59.66 150.995 58.94 148.155 58.94C145.075 58.94 142.275 59.68 139.755 61.16C137.235 62.6 135.235 64.64 133.755 67.28C132.275 69.88 131.535 72.92 131.535 76.4C131.535 79.88 132.275 82.94 133.755 85.58C135.235 88.18 137.235 90.2 139.755 91.64C142.275 93.08 145.075 93.8 148.155 93.8C150.995 93.8 153.595 93.1 155.955 91.7C158.355 90.26 160.275 88.24 161.715 85.64C163.155 83.04 163.875 79.96 163.875 76.4ZM212.345 101V91.4C212.025 92.4 211.085 93.78 209.525 95.54C208.005 97.3 205.905 98.9 203.225 100.34C200.585 101.74 197.465 102.44 193.865 102.44C189.305 102.44 185.165 101.36 181.445 99.2C177.765 97.04 174.825 94.02 172.625 90.14C170.465 86.22 169.385 81.64 169.385 76.4C169.385 71.16 170.465 66.6 172.625 62.72C174.825 58.8 177.765 55.76 181.445 53.6C185.165 51.4 189.305 50.3 193.865 50.3C197.425 50.3 200.505 50.94 203.105 52.22C205.745 53.5 207.845 54.98 209.405 56.66C211.005 58.34 211.945 59.78 212.225 60.98V51.74H222.545V101H212.345ZM179.705 76.4C179.705 79.96 180.485 83.04 182.045 85.64C183.605 88.24 185.625 90.26 188.105 91.7C190.625 93.1 193.305 93.8 196.145 93.8C199.185 93.8 201.905 93.08 204.305 91.64C206.705 90.2 208.605 88.18 210.005 85.58C211.405 82.94 212.105 79.88 212.105 76.4C212.105 72.92 211.405 69.88 210.005 67.28C208.605 64.64 206.705 62.6 204.305 61.16C201.905 59.68 199.185 58.94 196.145 58.94C193.305 58.94 190.625 59.66 188.105 61.1C185.625 62.54 183.605 64.56 182.045 67.16C180.485 69.76 179.705 72.84 179.705 76.4ZM252.635 50.3C255.875 50.3 259.015 50.98 262.055 52.34C265.135 53.7 267.655 55.86 269.615 58.82C271.615 61.74 272.615 65.56 272.615 70.28V101H262.055V72.32C262.055 67.44 260.915 63.9 258.635 61.7C256.355 59.46 253.415 58.34 249.815 58.34C247.455 58.34 245.175 59.02 242.975 60.38C240.815 61.7 239.035 63.54 237.635 65.9C236.235 68.22 235.535 70.86 235.535 73.82V101H225.095V51.74H235.535V60.5C235.895 59.14 236.875 57.66 238.475 56.06C240.075 54.46 242.115 53.1 244.595 51.98C247.075 50.86 249.755 50.3 252.635 50.3ZM281.406 78.5C281.446 81.46 282.086 84.16 283.326 86.6C284.566 89.04 286.406 90.98 288.846 92.42C291.326 93.86 294.366 94.58 297.966 94.58C301.006 94.58 303.586 94.14 305.706 93.26C307.866 92.34 309.626 91.26 310.986 90.02C312.346 88.74 313.326 87.6 313.926 86.6L319.026 92.9C317.706 94.82 316.086 96.5 314.166 97.94C312.286 99.38 309.986 100.48 307.266 101.24C304.546 102.04 301.226 102.44 297.306 102.44C292.026 102.44 287.446 101.32 283.566 99.08C279.726 96.8 276.766 93.66 274.686 89.66C272.606 85.62 271.566 81 271.566 75.8C271.566 71 272.546 66.68 274.506 62.84C276.466 58.96 279.306 55.9 283.026 53.66C286.786 51.42 291.306 50.3 296.586 50.3C301.426 50.3 305.626 51.32 309.186 53.36C312.786 55.36 315.566 58.2 317.526 61.88C319.526 65.56 320.526 69.96 320.526 75.08C320.526 75.4 320.506 75.98 320.466 76.82C320.426 77.62 320.386 78.18 320.346 78.5H281.406ZM310.566 70.64C310.526 69 310.046 67.2 309.126 65.24C308.246 63.28 306.806 61.6 304.806 60.2C302.806 58.8 300.106 58.1 296.706 58.1C293.186 58.1 290.346 58.78 288.186 60.14C286.066 61.5 284.506 63.16 283.506 65.12C282.506 67.04 281.926 68.88 281.766 70.64H310.566ZM327.449 102.08C325.799 102.08 324.374 101.495 323.174 100.325C322.004 99.125 321.419 97.7 321.419 96.05C321.419 94.34 322.004 92.9 323.174 91.73C324.374 90.53 325.799 89.93 327.449 89.93C329.159 89.93 330.599 90.53 331.769 91.73C332.939 92.9 333.524 94.34 333.524 96.05C333.524 97.7 332.939 99.125 331.769 100.325C330.599 101.495 329.159 102.08 327.449 102.08ZM355.805 95.6C358.145 95.6 360.035 95.225 361.475 94.475C362.915 93.725 363.815 93.185 364.175 92.855L368 98.48C367.7 98.75 366.98 99.185 365.84 99.785C364.73 100.355 363.29 100.88 361.52 101.36C359.78 101.84 357.8 102.08 355.58 102.08C352.19 102.08 349.04 101.33 346.13 99.83C343.22 98.3 340.865 96.08 339.065 93.17C337.295 90.26 336.41 86.705 336.41 82.505C336.41 78.275 337.295 74.72 339.065 71.84C340.865 68.93 343.22 66.725 346.13 65.225C349.04 63.725 352.19 62.975 355.58 62.975C357.77 62.975 359.72 63.245 361.43 63.785C363.14 64.295 364.55 64.865 365.66 65.495C366.77 66.125 367.505 66.605 367.865 66.935L363.995 72.56C363.755 72.32 363.29 71.96 362.6 71.48C361.94 70.97 361.04 70.505 359.9 70.085C358.76 69.665 357.395 69.455 355.805 69.455C353.885 69.455 352.01 69.98 350.18 71.03C348.38 72.05 346.895 73.535 345.725 75.485C344.555 77.435 343.97 79.775 343.97 82.505C343.97 85.235 344.555 87.59 345.725 89.57C346.895 91.52 348.38 93.02 350.18 94.07C352.01 95.09 353.885 95.6 355.805 95.6ZM384.294 102.08C380.484 102.08 377.094 101.225 374.124 99.515C371.184 97.805 368.874 95.495 367.194 92.585C365.514 89.645 364.674 86.33 364.674 82.64C364.674 78.95 365.514 75.62 367.194 72.65C368.874 69.68 371.184 67.325 374.124 65.585C377.094 63.845 380.484 62.975 384.294 62.975C388.074 62.975 391.419 63.845 394.329 65.585C397.269 67.325 399.564 69.68 401.214 72.65C402.864 75.62 403.689 78.95 403.689 82.64C403.689 86.33 402.864 89.645 401.214 92.585C399.564 95.495 397.269 97.805 394.329 99.515C391.419 101.225 388.074 102.08 384.294 102.08ZM384.294 95.375C386.694 95.375 388.779 94.82 390.549 93.71C392.349 92.6 393.744 91.085 394.734 89.165C395.724 87.215 396.219 85.025 396.219 82.595C396.219 80.165 395.724 77.975 394.734 76.025C393.744 74.075 392.349 72.53 390.549 71.39C388.779 70.25 386.694 69.68 384.294 69.68C381.864 69.68 379.749 70.25 377.949 71.39C376.149 72.53 374.739 74.075 373.719 76.025C372.729 77.975 372.234 80.165 372.234 82.595C372.234 85.025 372.729 87.215 373.719 89.165C374.739 91.085 376.149 92.6 377.949 93.71C379.749 94.82 381.864 95.375 384.294 95.375Z" fill="white"/>
</svg>
