<svg width="944" height="363" viewBox="0 0 944 363" fill="none" xmlns="http://www.w3.org/2000/svg">
<path d="M165.945 0H187.82L106.57 150H81.5703L0.320312 0H22.1953L94.0703 137.5L165.945 0ZM293.582 134.57C293.387 135.352 291.922 137.305 289.188 140.43C287.234 142.773 284.63 144.857 281.375 146.68C278.12 148.438 273.758 149.805 268.289 150.781C262.885 151.823 255.757 152.344 246.902 152.344C235.118 152.344 225.06 151.725 216.727 150.488C208.393 149.316 201.59 147.493 196.316 145.02C191.043 142.48 187.169 139.258 184.695 135.352C182.286 131.445 181.082 126.79 181.082 121.387C181.082 115.723 181.733 110.938 183.035 107.031C184.402 103.06 186.355 99.7396 188.895 97.0703C191.499 94.401 194.624 92.3177 198.27 90.8203C201.915 89.3229 206.049 88.1836 210.672 87.4023C215.359 86.6211 220.47 86.1328 226.004 85.9375C231.538 85.7422 237.43 85.6445 243.68 85.6445C252.599 85.6445 260.053 86.0352 266.043 86.8164C272.033 87.5326 276.915 88.4766 280.691 89.6484C284.533 90.7552 287.43 91.9596 289.383 93.2617C291.336 94.5638 292.736 95.7682 293.582 96.875C293.582 89.5833 293.257 83.3659 292.605 78.2227C292.02 73.0794 291.01 68.7826 289.578 65.332C288.211 61.8815 286.421 59.1471 284.207 57.1289C281.993 55.0456 279.259 53.4831 276.004 52.4414C272.814 51.3997 269.07 50.7487 264.773 50.4883C260.477 50.1628 255.561 50 250.027 50C241.434 50 234.305 50.2279 228.641 50.6836C222.977 51.0742 218.484 51.888 215.164 53.125C211.844 54.362 209.5 56.0872 208.133 58.3008C206.766 60.4492 206.082 63.2812 206.082 66.7969H187.332C187.332 60.8724 188.374 55.8594 190.457 51.7578C192.605 47.6562 196.121 44.3359 201.004 41.7969C205.952 39.1927 212.43 37.3047 220.438 36.1328C228.445 34.9609 238.309 34.375 250.027 34.375C261.486 34.375 271.186 35.319 279.129 37.207C287.072 39.0951 293.484 42.4154 298.367 47.168C303.315 51.9206 306.863 58.3333 309.012 66.4062C311.225 74.4141 312.332 84.5703 312.332 96.875V150H293.582V134.57ZM250.027 137.5C258.296 137.5 265.197 137.109 270.73 136.328C276.329 135.547 280.822 134.375 284.207 132.812C287.592 131.25 290.001 129.297 291.434 126.953C292.866 124.609 293.582 121.875 293.582 118.75C293.582 115.625 292.736 112.988 291.043 110.84C289.415 108.626 286.648 106.836 282.742 105.469C278.901 104.102 273.79 103.125 267.41 102.539C261.03 101.888 253.152 101.562 243.777 101.562C234.402 101.562 226.818 101.725 221.023 102.051C215.294 102.376 210.867 103.125 207.742 104.297C204.617 105.469 202.501 107.194 201.395 109.473C200.353 111.751 199.832 114.844 199.832 118.75C199.832 122.656 200.385 125.846 201.492 128.32C202.664 130.729 205.008 132.617 208.523 133.984C212.039 135.352 217.085 136.296 223.66 136.816C230.301 137.272 239.09 137.5 250.027 137.5ZM434.305 74.1211C434.305 69.4336 433.947 65.5599 433.23 62.5C432.579 59.375 430.984 56.901 428.445 55.0781C425.906 53.1901 422.13 51.888 417.117 51.1719C412.169 50.3906 405.398 50 396.805 50C388.406 50 381.57 50.7487 376.297 52.2461C371.023 53.6784 366.889 55.7292 363.895 58.3984C360.9 61.0677 358.849 64.2578 357.742 67.9688C356.701 71.6797 356.18 75.8138 356.18 80.3711V150H337.43V37.5H356.18V55.3711C356.831 53.3529 358.035 51.1393 359.793 48.7305C361.551 46.2565 364.22 43.9779 367.801 41.8945C371.382 39.7461 376.004 37.9557 381.668 36.5234C387.397 35.0911 394.526 34.375 403.055 34.375C412.82 34.375 420.763 35.2539 426.883 37.0117C433.003 38.7044 437.755 41.2435 441.141 44.6289C444.591 47.9492 446.902 52.0833 448.074 57.0312C449.311 61.9792 449.93 67.6758 449.93 74.1211H434.305ZM528.055 98.7305C519.201 98.7305 511.421 98.6003 504.715 98.3398C498.009 98.0794 492.215 97.5586 487.332 96.7773C482.514 95.931 478.478 94.7591 475.223 93.2617C472.033 91.7643 469.493 89.7786 467.605 87.3047C465.717 84.7656 464.383 81.6732 463.602 78.0273C462.82 74.3164 462.43 70.3125 462.43 66.0156C462.43 60.1562 463.667 55.2409 466.141 51.2695C468.615 47.2331 472.586 43.9779 478.055 41.5039C483.523 38.9648 490.62 37.1419 499.344 36.0352C508.068 34.9284 518.68 34.375 531.18 34.375C543.549 34.375 553.738 35.026 561.746 36.3281C569.819 37.6302 576.199 39.6484 580.887 42.3828C585.639 45.0521 588.96 48.4375 590.848 52.5391C592.736 56.6406 593.68 61.5234 593.68 67.1875H574.93C574.93 63.6719 574.246 60.8073 572.879 58.5938C571.577 56.3802 569.266 54.6549 565.945 53.418C562.625 52.1159 558.133 51.237 552.469 50.7812C546.87 50.2604 539.773 50 531.18 50C521.805 50 513.927 50.1302 507.547 50.3906C501.167 50.651 496.023 51.3021 492.117 52.3438C488.211 53.3854 485.411 54.9805 483.719 57.1289C482.026 59.2773 481.18 62.2396 481.18 66.0156C481.18 68.2292 481.31 70.4102 481.57 72.5586C481.896 74.6419 482.579 76.3672 483.621 77.7344C484.663 79.1016 486.193 80.1432 488.211 80.8594C490.229 81.5755 492.964 82.1289 496.414 82.5195C499.93 82.8451 504.259 83.0404 509.402 83.1055C514.546 83.1055 520.763 83.1055 528.055 83.1055C536.909 83.1055 544.656 83.3008 551.297 83.6914C558.003 84.082 563.797 84.7656 568.68 85.7422C573.562 86.7188 577.599 88.2161 580.789 90.2344C583.979 92.2526 586.518 94.4661 588.406 96.875C590.359 99.2188 591.727 102.018 592.508 105.273C593.289 108.464 593.68 112.174 593.68 116.406C593.68 120.638 593.289 124.447 592.508 127.832C591.727 131.152 590.359 134.115 588.406 136.719C586.453 139.258 583.784 141.471 580.398 143.359C577.078 145.182 572.879 146.68 567.801 147.852C562.723 148.958 556.635 149.772 549.539 150.293C542.508 150.879 534.305 151.172 524.93 151.172C513.211 151.172 503.348 150.586 495.34 149.414C487.397 148.242 480.984 146.387 476.102 143.848C471.219 141.243 467.703 137.891 465.555 133.789C463.471 129.688 462.43 124.674 462.43 118.75H481.18C481.18 122.656 481.831 125.846 483.133 128.32C484.5 130.729 486.844 132.617 490.164 133.984C493.484 135.352 497.944 136.296 503.543 136.816C509.207 137.272 516.336 137.5 524.93 137.5C532.742 137.5 539.383 137.337 544.852 137.012C550.385 136.621 555.008 136.035 558.719 135.254C562.43 134.473 565.359 133.529 567.508 132.422C569.656 131.315 571.284 129.98 572.391 128.418C573.497 126.855 574.181 125.13 574.441 123.242C574.767 121.289 574.93 119.141 574.93 116.797C574.93 114.648 574.767 112.76 574.441 111.133C574.181 109.44 573.53 107.78 572.488 106.152C571.447 104.46 569.917 103.19 567.898 102.344C565.88 101.497 563.113 100.814 559.598 100.293C556.147 99.707 551.85 99.3164 546.707 99.1211C541.564 98.8607 535.346 98.7305 528.055 98.7305ZM624.93 37.5H643.68V150H624.93V37.5ZM643.68 18.75H624.93V0H643.68V18.75ZM784.305 100C784.305 109.57 783.523 117.578 781.961 124.023C780.398 130.404 777.762 135.514 774.051 139.355C770.405 143.197 765.587 145.931 759.598 147.559C753.608 149.186 746.219 150 737.43 150C728.901 150 721.74 149.349 715.945 148.047C710.151 146.745 705.464 144.531 701.883 141.406C698.302 138.281 695.73 134.115 694.168 128.906C692.605 123.698 691.824 117.188 691.824 109.375V52.9297H668.68V37.5H691.824V6.73828H710.574V37.5H781.18V52.9297H710.574V109.375C710.574 115.625 711.03 120.443 711.941 123.828C712.918 127.214 714.448 129.688 716.531 131.25C718.615 132.812 721.349 133.724 724.734 133.984C728.185 134.245 732.384 134.375 737.332 134.375C741.238 134.375 744.721 134.31 747.781 134.18C750.906 134.049 753.608 133.659 755.887 133.008C758.23 132.292 760.216 131.25 761.844 129.883C763.471 128.451 764.773 126.465 765.75 123.926C766.792 121.387 767.54 118.197 767.996 114.355C768.452 110.449 768.68 105.664 768.68 100H784.305ZM862.43 150L803.055 37.5H824.93L874.93 137.5L921.805 37.5H943.68L887.43 150L884.305 156.25C882.742 159.375 881.18 162.305 879.617 165.039C878.12 167.839 876.395 170.378 874.441 172.656C872.488 175 870.177 177.083 867.508 178.906C864.839 180.729 861.551 182.259 857.645 183.496C853.803 184.798 849.214 185.775 843.875 186.426C838.536 187.142 832.221 187.5 824.93 187.5V171.875C831.18 171.875 836.453 171.615 840.75 171.094C845.047 170.638 848.628 169.922 851.492 168.945C854.422 168.034 856.766 166.927 858.523 165.625C860.281 164.323 861.746 162.858 862.918 161.23C864.09 159.603 865.066 157.845 865.848 155.957C866.694 154.069 867.638 152.083 868.68 150H862.43ZM23.6602 301.969C23.6602 290.445 24.8971 280.908 27.3711 273.355C29.8451 265.803 33.8164 259.814 39.2852 255.387C44.7539 250.96 51.8503 247.867 60.5742 246.109C69.2982 244.286 79.9102 243.375 92.4102 243.375C104.91 243.375 115.522 244.286 124.246 246.109C132.97 247.867 140.066 250.96 145.535 255.387C151.004 259.814 154.975 265.803 157.449 273.355C159.923 280.908 161.16 290.445 161.16 301.969C161.16 313.492 159.923 323.062 157.449 330.68C154.975 338.297 151.004 344.352 145.535 348.844C140.066 353.336 132.97 356.526 124.246 358.414C115.522 360.237 104.91 361.148 92.4102 361.148C79.9102 361.148 69.2982 360.237 60.5742 358.414C51.8503 356.526 44.7539 353.336 39.2852 348.844C33.8164 344.352 29.8451 338.297 27.3711 330.68C24.8971 323.062 23.6602 313.492 23.6602 301.969ZM42.4102 301.969C42.4102 308.219 42.638 313.655 43.0938 318.277C43.5495 322.9 44.3958 326.871 45.6328 330.191C46.9349 333.512 48.7253 336.214 51.0039 338.297C53.2826 340.38 56.2773 342.04 59.9883 343.277C63.6992 344.514 68.1914 345.361 73.4648 345.816C78.8034 346.272 85.1185 346.5 92.4102 346.5C98.6602 346.5 104.227 346.37 109.109 346.109C114.057 345.784 118.354 345.1 122 344.059C125.711 343.017 128.868 341.552 131.473 339.664C134.077 337.711 136.16 335.074 137.723 331.754C139.35 328.434 140.522 324.365 141.238 319.547C142.02 314.664 142.41 308.805 142.41 301.969C142.41 295.263 142.02 289.566 141.238 284.879C140.522 280.126 139.35 276.155 137.723 272.965C136.16 269.775 134.077 267.268 131.473 265.445C128.868 263.557 125.711 262.158 122 261.246C118.354 260.27 114.057 259.651 109.109 259.391C104.227 259.13 98.6602 259 92.4102 259C86.1602 259 80.5612 259.13 75.6133 259.391C70.7305 259.651 66.4336 260.27 62.7227 261.246C59.0768 262.158 55.9518 263.557 53.3477 265.445C50.7435 267.268 48.6276 269.775 47 272.965C45.4375 276.155 44.2656 280.126 43.4844 284.879C42.7682 289.566 42.4102 295.263 42.4102 301.969ZM295.535 359V296.5C295.535 289.534 295.014 283.674 293.973 278.922C292.931 274.104 290.848 270.23 287.723 267.301C284.598 264.371 280.171 262.255 274.441 260.953C268.712 259.651 261.16 259 251.785 259C241.629 259 233.296 259.749 226.785 261.246C220.34 262.743 215.262 264.859 211.551 267.594C207.84 270.328 205.268 273.616 203.836 277.457C202.469 281.298 201.785 285.562 201.785 290.25V359H183.035V246.5H201.785V265.25C203.152 262.06 205.105 259.326 207.645 257.047C210.184 254.703 213.048 252.717 216.238 251.09C219.428 249.462 222.879 248.16 226.59 247.184C230.301 246.142 234.012 245.361 237.723 244.84C241.434 244.254 245.014 243.863 248.465 243.668C251.98 243.473 255.171 243.375 258.035 243.375C266.368 243.375 273.53 243.896 279.52 244.938C285.574 245.979 290.685 247.509 294.852 249.527C299.083 251.546 302.469 254.052 305.008 257.047C307.547 260.042 309.5 263.525 310.867 267.496C312.299 271.402 313.243 275.797 313.699 280.68C314.155 285.497 314.383 290.771 314.383 296.5L314.285 359H295.535ZM484.012 274.625C494.298 274.625 503.12 275.048 510.477 275.895C517.833 276.741 524.018 278.01 529.031 279.703C534.109 281.331 538.146 283.382 541.141 285.855C544.135 288.329 546.447 291.161 548.074 294.352C549.702 297.477 550.743 300.992 551.199 304.898C551.72 308.805 551.98 313.036 551.98 317.594C551.98 322.151 551.557 326.448 550.711 330.484C549.93 334.456 548.497 338.102 546.414 341.422C544.331 344.742 541.499 347.704 537.918 350.309C534.337 352.913 529.78 355.126 524.246 356.949C518.712 358.772 512.039 360.139 504.227 361.051C496.479 362.027 487.397 362.516 476.98 362.516H451.98C442.605 362.516 434.402 362.158 427.371 361.441C420.34 360.725 414.285 359.651 409.207 358.219C404.129 356.721 399.93 354.866 396.609 352.652C393.289 350.374 390.62 347.737 388.602 344.742C386.648 341.682 385.281 338.232 384.5 334.391C383.719 330.484 383.328 326.188 383.328 321.5H402.078C402.078 327.359 402.924 331.949 404.617 335.27C406.31 338.59 409.109 341.096 413.016 342.789C416.922 344.417 422.033 345.458 428.348 345.914C434.728 346.305 442.605 346.5 451.98 346.5H476.98C487.918 346.5 497 345.979 504.227 344.938C511.453 343.896 517.215 342.236 521.512 339.957C525.809 337.678 528.836 334.716 530.594 331.07C532.352 327.359 533.23 322.867 533.23 317.594C533.23 312.32 532.612 307.926 531.375 304.41C530.203 300.895 527.827 298.095 524.246 296.012C520.73 293.928 515.75 292.464 509.305 291.617C502.859 290.706 494.428 290.25 484.012 290.25H458.23C446.772 290.25 436.941 289.827 428.738 288.98C420.6 288.134 413.764 286.93 408.23 285.367C402.697 283.74 398.27 281.754 394.949 279.41C391.629 277.001 389.09 274.267 387.332 271.207C385.639 268.147 384.533 264.762 384.012 261.051C383.491 257.275 383.23 253.206 383.23 248.844C383.23 244.286 383.621 240.055 384.402 236.148C385.249 232.242 386.779 228.727 388.992 225.602C391.206 222.411 394.233 219.579 398.074 217.105C401.915 214.632 406.831 212.581 412.82 210.953C418.875 209.26 426.134 207.991 434.598 207.145C443.061 206.298 453.022 205.875 464.48 205.875H483.23C492.605 205.875 500.809 206.233 507.84 206.949C514.871 207.6 520.926 208.674 526.004 210.172C531.082 211.604 535.281 213.427 538.602 215.641C541.987 217.789 544.656 220.393 546.609 223.453C548.628 226.448 550.027 229.866 550.809 233.707C551.59 237.548 551.98 241.812 551.98 246.5H533.23C533.23 240.641 532.384 236.051 530.691 232.73C528.999 229.41 526.199 226.936 522.293 225.309C518.387 223.616 513.243 222.574 506.863 222.184C500.483 221.728 492.605 221.5 483.23 221.5H464.48C451.98 221.5 441.694 221.956 433.621 222.867C425.548 223.714 419.168 225.178 414.48 227.262C409.793 229.345 406.538 232.145 404.715 235.66C402.892 239.176 401.98 243.57 401.98 248.844C401.98 252.099 402.208 254.996 402.664 257.535C403.12 260.074 404.031 262.32 405.398 264.273C406.831 266.161 408.816 267.757 411.355 269.059C413.895 270.361 417.247 271.435 421.414 272.281C425.581 273.128 430.659 273.746 436.648 274.137C442.703 274.462 449.897 274.625 458.23 274.625H484.012ZM688.992 343.57C688.797 344.352 687.332 346.305 684.598 349.43C682.645 351.773 680.04 353.857 676.785 355.68C673.53 357.438 669.168 358.805 663.699 359.781C658.296 360.823 651.167 361.344 642.312 361.344C630.529 361.344 620.47 360.725 612.137 359.488C603.803 358.316 597 356.493 591.727 354.02C586.453 351.48 582.579 348.258 580.105 344.352C577.697 340.445 576.492 335.79 576.492 330.387C576.492 324.723 577.143 319.938 578.445 316.031C579.812 312.06 581.766 308.74 584.305 306.07C586.909 303.401 590.034 301.318 593.68 299.82C597.326 298.323 601.46 297.184 606.082 296.402C610.77 295.621 615.88 295.133 621.414 294.938C626.948 294.742 632.84 294.645 639.09 294.645C648.009 294.645 655.464 295.035 661.453 295.816C667.443 296.533 672.326 297.477 676.102 298.648C679.943 299.755 682.84 300.96 684.793 302.262C686.746 303.564 688.146 304.768 688.992 305.875C688.992 298.583 688.667 292.366 688.016 287.223C687.43 282.079 686.421 277.783 684.988 274.332C683.621 270.882 681.831 268.147 679.617 266.129C677.404 264.046 674.669 262.483 671.414 261.441C668.224 260.4 664.48 259.749 660.184 259.488C655.887 259.163 650.971 259 645.438 259C636.844 259 629.715 259.228 624.051 259.684C618.387 260.074 613.895 260.888 610.574 262.125C607.254 263.362 604.91 265.087 603.543 267.301C602.176 269.449 601.492 272.281 601.492 275.797H582.742C582.742 269.872 583.784 264.859 585.867 260.758C588.016 256.656 591.531 253.336 596.414 250.797C601.362 248.193 607.84 246.305 615.848 245.133C623.855 243.961 633.719 243.375 645.438 243.375C656.896 243.375 666.596 244.319 674.539 246.207C682.482 248.095 688.895 251.415 693.777 256.168C698.725 260.921 702.273 267.333 704.422 275.406C706.635 283.414 707.742 293.57 707.742 305.875V359H688.992V343.57ZM645.438 346.5C653.706 346.5 660.607 346.109 666.141 345.328C671.74 344.547 676.232 343.375 679.617 341.812C683.003 340.25 685.411 338.297 686.844 335.953C688.276 333.609 688.992 330.875 688.992 327.75C688.992 324.625 688.146 321.988 686.453 319.84C684.826 317.626 682.059 315.836 678.152 314.469C674.311 313.102 669.201 312.125 662.82 311.539C656.44 310.888 648.562 310.562 639.188 310.562C629.812 310.562 622.228 310.725 616.434 311.051C610.704 311.376 606.277 312.125 603.152 313.297C600.027 314.469 597.911 316.194 596.805 318.473C595.763 320.751 595.242 323.844 595.242 327.75C595.242 331.656 595.796 334.846 596.902 337.32C598.074 339.729 600.418 341.617 603.934 342.984C607.449 344.352 612.495 345.296 619.07 345.816C625.711 346.272 634.5 346.5 645.438 346.5ZM739.09 209H757.84V359H739.09V209ZM854.715 361.148C842.215 361.148 831.603 360.302 822.879 358.609C814.155 356.852 807.059 353.857 801.59 349.625C796.121 345.393 792.15 339.729 789.676 332.633C787.202 325.536 785.965 316.617 785.965 305.875C785.965 293.57 787.202 283.414 789.676 275.406C792.15 267.333 796.121 260.921 801.59 256.168C807.059 251.415 814.155 248.095 822.879 246.207C831.603 244.319 842.215 243.375 854.715 243.375C863.634 243.375 871.349 244.026 877.859 245.328C884.435 246.63 890.034 248.518 894.656 250.992C899.344 253.466 903.12 256.461 905.984 259.977C908.914 263.492 911.193 267.203 912.82 271.109C914.513 274.951 915.652 279.475 916.238 284.684C916.889 289.892 917.215 295.393 917.215 301.188L915.652 307.438H804.715C804.715 316.031 805.561 323.095 807.254 328.629C808.947 334.098 811.746 338.102 815.652 340.641C819.559 343.18 824.702 344.807 831.082 345.523C837.462 346.174 845.34 346.5 854.715 346.5C863.309 346.5 870.405 346.272 876.004 345.816C881.668 345.296 886.16 344.352 889.48 342.984C892.801 341.617 895.112 339.729 896.414 337.32C897.781 334.846 898.465 331.656 898.465 327.75H917.215C917.215 333.805 916.141 338.98 913.992 343.277C911.909 347.509 908.426 350.96 903.543 353.629C898.66 356.233 892.215 358.121 884.207 359.293C876.264 360.53 866.434 361.148 854.715 361.148ZM854.715 259C848.465 259 842.866 259.13 837.918 259.391C833.035 259.651 828.738 260.237 825.027 261.148C821.382 261.995 818.257 263.264 815.652 264.957C813.048 266.585 810.932 268.538 809.305 270.816C807.742 273.03 806.57 276.188 805.789 280.289C805.073 284.326 804.715 289.208 804.715 294.938H898.465C898.465 287.32 897.651 281.363 896.023 277.066C894.396 272.704 891.824 269.124 888.309 266.324C884.793 263.525 880.268 261.604 874.734 260.562C869.201 259.521 862.527 259 854.715 259Z" fill="white"/>
</svg>
